<svg width="20" height="20" viewBox="0 0 20 20" fill="none" xmlns="http://www.w3.org/2000/svg">
<path d="M6.39988 15.0002L9.99988 11.4002L13.5999 15.0002L14.9999 13.6002L11.3999 10.0002L14.9999 6.40024L13.5999 5.00024L9.99988 8.60024L6.39988 5.00024L4.99988 6.40024L8.59988 10.0002L4.99988 13.6002L6.39988 15.0002ZM9.99988 20.0002C8.61654 20.0002 7.31654 19.7377 6.09988 19.2127C4.88321 18.6877 3.82488 17.9752 2.92488 17.0752C2.02488 16.1752 1.31238 15.1169 0.787378 13.9002C0.262378 12.6836 -0.00012207 11.3836 -0.00012207 10.0002C-0.00012207 8.61691 0.262378 7.31691 0.787378 6.10024C1.31238 4.88358 2.02488 3.82524 2.92488 2.92524C3.82488 2.02524 4.88321 1.31274 6.09988 0.787744C7.31654 0.262744 8.61654 0.000244141 9.99988 0.000244141C11.3832 0.000244141 12.6832 0.262744 13.8999 0.787744C15.1165 1.31274 16.1749 2.02524 17.0749 2.92524C17.9749 3.82524 18.6874 4.88358 19.2124 6.10024C19.7374 7.31691 19.9999 8.61691 19.9999 10.0002C19.9999 11.3836 19.7374 12.6836 19.2124 13.9002C18.6874 15.1169 17.9749 16.1752 17.0749 17.0752C16.1749 17.9752 15.1165 18.6877 13.8999 19.2127C12.6832 19.7377 11.3832 20.0002 9.99988 20.0002ZM9.99988 18.0002C12.2332 18.0002 14.1249 17.2252 15.6749 15.6752C17.2249 14.1252 17.9999 12.2336 17.9999 10.0002C17.9999 7.76691 17.2249 5.87524 15.6749 4.32524C14.1249 2.77524 12.2332 2.00024 9.99988 2.00024C7.76654 2.00024 5.87488 2.77524 4.32488 4.32524C2.77488 5.87524 1.99988 7.76691 1.99988 10.0002C1.99988 12.2336 2.77488 14.1252 4.32488 15.6752C5.87488 17.2252 7.76654 18.0002 9.99988 18.0002Z" fill="#493B2E"/>
</svg>
