<svg width="20" height="20" viewBox="0 0 20 20" fill="none" xmlns="http://www.w3.org/2000/svg">
<g clip-path="url(#clip0_1015_887)">
<path d="M15.0003 9.17008C14.5142 8.2642 13.5612 7.63146 12.4602 7.58275C11.2312 7.52837 9.98266 7.5 8.60783 7.5C7.23292 7.5 5.98442 7.52837 4.75536 7.58275C3.29473 7.64738 2.09445 8.74008 1.89934 10.1348C1.77201 11.0451 1.66699 11.9778 1.66699 12.9278C1.66699 13.8778 1.77201 14.8106 1.89934 15.7208C2.09445 17.1156 3.29473 18.2082 4.75536 18.2729C5.35043 18.2992 6.05067 18.3195 6.66699 18.3333" stroke="#493B2E" stroke-width="1.5" stroke-linecap="round"/>
<path d="M5 7.49996V5.41663C5 3.34556 6.67893 1.66663 8.75 1.66663C10.8211 1.66663 12.5 3.34556 12.5 5.41663V7.49996" stroke="#493B2E" stroke-width="1.5" stroke-linecap="round" stroke-linejoin="round"/>
<path d="M17.8499 13.7306C18.122 13.9977 18.5591 13.9937 18.8261 13.7217C19.0932 13.4496 19.0892 13.0125 18.8172 12.7454L17.8499 13.7306ZM15.1985 15.0322C15.4705 15.2994 15.9076 15.2954 16.1747 15.0233C16.4418 14.7513 16.4378 14.3142 16.1658 14.0471L15.1985 15.0322ZM11.8838 17.3016C11.4201 17.7568 10.6633 17.7568 10.1997 17.3016L9.23239 18.2867C10.2331 19.2693 11.8504 19.2693 12.8511 18.2867L11.8838 17.3016ZM10.1997 17.3016C9.74306 16.8532 9.74306 16.1317 10.1997 15.6833L9.23239 14.6982C8.22462 15.6877 8.22462 17.2972 9.23239 18.2867L10.1997 17.3016ZM10.1997 15.6833C10.6633 15.2281 11.4201 15.2281 11.8838 15.6833L12.8511 14.6982C11.8504 13.7156 10.2331 13.7156 9.23239 14.6982L10.1997 15.6833ZM11.8838 15.6833C12.3404 16.1317 12.3404 16.8532 11.8838 17.3016L12.8511 18.2867C13.8589 17.2972 13.8589 15.6877 12.8511 14.6982L11.8838 15.6833ZM17.1871 13.0797L17.8499 13.7306L18.8172 12.7454L18.1544 12.0945L17.1871 13.0797ZM12.8511 15.6833L14.8401 13.7306L13.8727 12.7453L11.8838 14.6981L12.8511 15.6833ZM14.8401 13.7306L15.5029 13.0797L14.5356 12.0945L13.8727 12.7453L14.8401 13.7306ZM13.8727 13.7306L15.1985 15.0322L16.1658 14.0471L14.8401 12.7454L13.8727 13.7306ZM18.1544 12.0945C17.8557 11.8013 17.5834 11.5319 17.333 11.3442C17.0661 11.1443 16.7469 10.9763 16.345 10.9763V12.357C16.3456 12.357 16.3494 12.3561 16.3665 12.3631C16.3888 12.3722 16.4321 12.3946 16.5052 12.4492C16.6643 12.5685 16.8607 12.7593 17.1871 13.0797L18.1544 12.0945ZM15.5029 13.0797C15.8292 12.7593 16.0256 12.5685 16.1848 12.4492C16.2578 12.3946 16.3011 12.3722 16.3235 12.3631C16.3406 12.3561 16.3443 12.357 16.345 12.357V10.9763C15.9431 10.9763 15.6238 11.1443 15.357 11.3442C15.1066 11.5319 14.8342 11.8013 14.5356 12.0945L15.5029 13.0797Z" fill="#493B2E"/>
</g>
<defs>
<clipPath id="clip0_1015_887">
<rect width="20" height="20" fill="white"/>
</clipPath>
</defs>
</svg>
