<svg width="12" height="15" viewBox="0 0 12 15" fill="none" xmlns="http://www.w3.org/2000/svg">
<path d="M2.00033 14.6666C1.63366 14.6666 1.31977 14.5361 1.05866 14.275C0.797548 14.0138 0.666992 13.7 0.666992 13.3333V6.66663C0.666992 6.29996 0.797548 5.98607 1.05866 5.72496C1.31977 5.46385 1.63366 5.33329 2.00033 5.33329H2.66699V3.99996C2.66699 3.07774 2.99199 2.29163 3.64199 1.64163C4.29199 0.991626 5.0781 0.666626 6.00033 0.666626C6.92255 0.666626 7.70866 0.991626 8.35866 1.64163C9.00866 2.29163 9.33366 3.07774 9.33366 3.99996V5.33329H10.0003C10.367 5.33329 10.6809 5.46385 10.942 5.72496C11.2031 5.98607 11.3337 6.29996 11.3337 6.66663V13.3333C11.3337 13.7 11.2031 14.0138 10.942 14.275C10.6809 14.5361 10.367 14.6666 10.0003 14.6666H2.00033ZM2.00033 13.3333H10.0003V6.66663H2.00033V13.3333ZM6.00033 11.3333C6.36699 11.3333 6.68088 11.2027 6.94199 10.9416C7.2031 10.6805 7.33366 10.3666 7.33366 9.99996C7.33366 9.63329 7.2031 9.3194 6.94199 9.05829C6.68088 8.79718 6.36699 8.66663 6.00033 8.66663C5.63366 8.66663 5.31977 8.79718 5.05866 9.05829C4.79755 9.3194 4.66699 9.63329 4.66699 9.99996C4.66699 10.3666 4.79755 10.6805 5.05866 10.9416C5.31977 11.2027 5.63366 11.3333 6.00033 11.3333ZM4.00033 5.33329H8.00033V3.99996C8.00033 3.4444 7.80588 2.97218 7.41699 2.58329C7.0281 2.1944 6.55588 1.99996 6.00033 1.99996C5.44477 1.99996 4.97255 2.1944 4.58366 2.58329C4.19477 2.97218 4.00033 3.4444 4.00033 3.99996V5.33329Z" fill="#857C73"/>
</svg>
