<svg width="18" height="14" viewBox="0 0 18 14" fill="red" xmlns="http://www.w3.org/2000/svg">
<path d="M2.33268 13.6666C1.87435 13.6666 1.48199 13.5034 1.1556 13.177C0.82921 12.8506 0.666016 12.4583 0.666016 11.9999V1.99992C0.666016 1.54159 0.82921 1.14922 1.1556 0.822835C1.48199 0.496446 1.87435 0.333252 2.33268 0.333252H15.666C16.1243 0.333252 16.5167 0.496446 16.8431 0.822835C17.1695 1.14922 17.3327 1.54159 17.3327 1.99992V11.9999C17.3327 12.4583 17.1695 12.8506 16.8431 13.177C16.5167 13.5034 16.1243 13.6666 15.666 13.6666H2.33268ZM8.99935 7.83325L2.33268 3.66659V11.9999H15.666V3.66659L8.99935 7.83325ZM8.99935 6.16659L15.666 1.99992H2.33268L8.99935 6.16659ZM2.33268 3.66659V1.99992V11.9999V3.66659Z" fill="#493B2E"/>
</svg>
