<svg width="12" height="12" viewBox="0 0 12 12" fill="none" xmlns="http://www.w3.org/2000/svg">
<path d="M6.00033 6.00008C5.26699 6.00008 4.63921 5.73897 4.11699 5.21675C3.59477 4.69453 3.33366 4.06675 3.33366 3.33341C3.33366 2.60008 3.59477 1.9723 4.11699 1.45008C4.63921 0.927859 5.26699 0.666748 6.00033 0.666748C6.73366 0.666748 7.36144 0.927859 7.88366 1.45008C8.40588 1.9723 8.66699 2.60008 8.66699 3.33341C8.66699 4.06675 8.40588 4.69453 7.88366 5.21675C7.36144 5.73897 6.73366 6.00008 6.00033 6.00008ZM0.666992 11.3334V9.46675C0.666992 9.08897 0.764214 8.74175 0.958659 8.42508C1.1531 8.10841 1.41144 7.86675 1.73366 7.70008C2.42255 7.35564 3.12255 7.0973 3.83366 6.92508C4.54477 6.75286 5.26699 6.66675 6.00033 6.66675C6.73366 6.66675 7.45588 6.75286 8.16699 6.92508C8.8781 7.0973 9.5781 7.35564 10.267 7.70008C10.5892 7.86675 10.8475 8.10841 11.042 8.42508C11.2364 8.74175 11.3337 9.08897 11.3337 9.46675V11.3334H0.666992ZM2.00033 10.0001H10.0003V9.46675C10.0003 9.34453 9.96977 9.23341 9.90866 9.13342C9.84755 9.03341 9.76699 8.95564 9.66699 8.90008C9.06699 8.60008 8.46144 8.37508 7.85033 8.22508C7.23921 8.07508 6.62255 8.00008 6.00033 8.00008C5.3781 8.00008 4.76144 8.07508 4.15033 8.22508C3.53921 8.37508 2.93366 8.60008 2.33366 8.90008C2.23366 8.95564 2.1531 9.03341 2.09199 9.13342C2.03088 9.23341 2.00033 9.34453 2.00033 9.46675V10.0001ZM6.00033 4.66675C6.36699 4.66675 6.68088 4.53619 6.94199 4.27508C7.2031 4.01397 7.33366 3.70008 7.33366 3.33341C7.33366 2.96675 7.2031 2.65286 6.94199 2.39175C6.68088 2.13064 6.36699 2.00008 6.00033 2.00008C5.63366 2.00008 5.31977 2.13064 5.05866 2.39175C4.79755 2.65286 4.66699 2.96675 4.66699 3.33341C4.66699 3.70008 4.79755 4.01397 5.05866 4.27508C5.31977 4.53619 5.63366 4.66675 6.00033 4.66675Z" fill="#857C73"/>
</svg>
