<svg width="12" height="12" viewBox="0 0 12 12" fill="none" xmlns="http://www.w3.org/2000/svg">
<path d="M11.3 12C11.5 12 11.6667 11.9333 11.8 11.8C11.9333 11.6667 12 11.5 12 11.3V8.6C12 8.45556 11.95 8.325 11.85 8.20833C11.75 8.09167 11.6222 8.01111 11.4667 7.96667L9.16667 7.5C9.01111 7.47778 8.85278 7.49167 8.69167 7.54167C8.53056 7.59167 8.4 7.66667 8.3 7.76667L6.73333 9.33333C6.31111 9.08889 5.91111 8.81944 5.53333 8.525C5.15556 8.23056 4.79444 7.91111 4.45 7.56667C4.08333 7.21111 3.74722 6.84167 3.44167 6.45833C3.13611 6.075 2.87222 5.67778 2.65 5.26667L4.26667 3.63333C4.35556 3.54444 4.41667 3.43889 4.45 3.31667C4.48333 3.19444 4.48889 3.04444 4.46667 2.86667L4.03333 0.533333C4.01111 0.388889 3.93889 0.263889 3.81667 0.158333C3.69444 0.0527778 3.55556 0 3.4 0H0.699999C0.499999 0 0.333332 0.0666667 0.199999 0.2C0.0666656 0.333333 0 0.5 0 0.7C0 2.08889 0.302777 3.46111 0.908333 4.81667C1.51389 6.17222 2.37222 7.40556 3.48333 8.51667C4.59444 9.62778 5.82778 10.4861 7.18333 11.0917C8.53889 11.6972 9.91111 12 11.3 12ZM2.03333 4C1.84444 3.56667 1.7 3.12778 1.6 2.68333C1.5 2.23889 1.42222 1.78889 1.36667 1.33333H2.83333L3.13333 2.9L2.03333 4ZM8 9.93333L9.1 8.83333L10.6667 9.16667V10.6333C10.2111 10.6 9.76111 10.5222 9.31667 10.4C8.87222 10.2778 8.43333 10.1222 8 9.93333Z" fill="#857C73"/>
</svg>
