<svg width="16" height="15" viewBox="0 0 16 15" fill="none" xmlns="http://www.w3.org/2000/svg">
<path d="M10.7337 7.86658L9.76699 6.89991C9.86699 6.37769 9.71699 5.8888 9.31699 5.43324C8.91699 4.97769 8.40033 4.79991 7.76699 4.89991L6.80033 3.93324C6.98921 3.84436 7.18088 3.77769 7.37533 3.73324C7.56977 3.6888 7.7781 3.66658 8.00033 3.66658C8.83366 3.66658 9.54199 3.95824 10.1253 4.54158C10.7087 5.12491 11.0003 5.83324 11.0003 6.66658C11.0003 6.8888 10.9781 7.09713 10.9337 7.29158C10.8892 7.48602 10.8225 7.67769 10.7337 7.86658ZM12.867 9.96658L11.9003 9.03325C12.3225 8.71102 12.6975 8.35824 13.0253 7.97491C13.3531 7.59158 13.6337 7.15547 13.867 6.66658C13.3114 5.54436 12.5142 4.65269 11.4753 3.99158C10.4364 3.33047 9.2781 2.99991 8.00033 2.99991C7.6781 2.99991 7.36144 3.02213 7.05033 3.06658C6.73921 3.11102 6.43366 3.17769 6.13366 3.26658L5.10033 2.23324C5.55588 2.04436 6.02255 1.90269 6.50033 1.80824C6.9781 1.7138 7.4781 1.66658 8.00033 1.66658C9.6781 1.66658 11.1725 2.13047 12.4837 3.05824C13.7948 3.98602 14.7448 5.1888 15.3337 6.66658C15.0781 7.32213 14.742 7.93047 14.3253 8.49158C13.9087 9.05269 13.4225 9.54436 12.867 9.96658ZM13.2003 14.0666L10.4003 11.2999C10.0114 11.4221 9.61977 11.5138 9.22533 11.5749C8.83088 11.636 8.42255 11.6666 8.00033 11.6666C6.32255 11.6666 4.8281 11.2027 3.51699 10.2749C2.20588 9.34713 1.25588 8.14436 0.666992 6.66658C0.900326 6.07769 1.19477 5.53047 1.55033 5.02491C1.90588 4.51936 2.31144 4.06658 2.76699 3.66658L0.933659 1.79991L1.86699 0.866577L14.1337 13.1332L13.2003 14.0666ZM3.70033 4.59991C3.3781 4.8888 3.08366 5.20547 2.81699 5.54991C2.55033 5.89436 2.32255 6.26658 2.13366 6.66658C2.68921 7.7888 3.48644 8.68047 4.52533 9.34158C5.56421 10.0027 6.72255 10.3332 8.00033 10.3332C8.22255 10.3332 8.43921 10.3194 8.65033 10.2916C8.86144 10.2638 9.0781 10.2332 9.30033 10.1999L8.70033 9.56658C8.5781 9.59991 8.46144 9.62491 8.35033 9.64158C8.23921 9.65825 8.12255 9.66658 8.00033 9.66658C7.16699 9.66658 6.45866 9.37491 5.87533 8.79158C5.29199 8.20824 5.00033 7.49991 5.00033 6.66658C5.00033 6.54436 5.00866 6.42769 5.02533 6.31658C5.04199 6.20547 5.06699 6.0888 5.10033 5.96658L3.70033 4.59991Z" fill="#857C73"/>
</svg>
