<svg width="16" height="11" viewBox="0 0 16 11" fill="none" xmlns="http://www.w3.org/2000/svg">
<path d="M8.00033 8.66675C8.83366 8.66675 9.54199 8.37508 10.1253 7.79175C10.7087 7.20842 11.0003 6.50008 11.0003 5.66675C11.0003 4.83342 10.7087 4.12508 10.1253 3.54175C9.54199 2.95841 8.83366 2.66675 8.00033 2.66675C7.16699 2.66675 6.45866 2.95841 5.87533 3.54175C5.29199 4.12508 5.00033 4.83342 5.00033 5.66675C5.00033 6.50008 5.29199 7.20842 5.87533 7.79175C6.45866 8.37508 7.16699 8.66675 8.00033 8.66675ZM8.00033 7.46675C7.50033 7.46675 7.07533 7.29175 6.72533 6.94175C6.37533 6.59175 6.20033 6.16675 6.20033 5.66675C6.20033 5.16675 6.37533 4.74175 6.72533 4.39175C7.07533 4.04175 7.50033 3.86675 8.00033 3.86675C8.50033 3.86675 8.92533 4.04175 9.27533 4.39175C9.62533 4.74175 9.80033 5.16675 9.80033 5.66675C9.80033 6.16675 9.62533 6.59175 9.27533 6.94175C8.92533 7.29175 8.50033 7.46675 8.00033 7.46675ZM8.00033 10.6667C6.3781 10.6667 4.90033 10.214 3.56699 9.30842C2.23366 8.40286 1.26699 7.18897 0.666992 5.66675C1.26699 4.14453 2.23366 2.93064 3.56699 2.02508C4.90033 1.11953 6.3781 0.666748 8.00033 0.666748C9.62255 0.666748 11.1003 1.11953 12.4337 2.02508C13.767 2.93064 14.7337 4.14453 15.3337 5.66675C14.7337 7.18897 13.767 8.40286 12.4337 9.30842C11.1003 10.214 9.62255 10.6667 8.00033 10.6667ZM8.00033 9.33342C9.25588 9.33342 10.4087 9.00286 11.4587 8.34175C12.5087 7.68064 13.3114 6.78897 13.867 5.66675C13.3114 4.54453 12.5087 3.65286 11.4587 2.99175C10.4087 2.33064 9.25588 2.00008 8.00033 2.00008C6.74477 2.00008 5.59199 2.33064 4.54199 2.99175C3.49199 3.65286 2.68921 4.54453 2.13366 5.66675C2.68921 6.78897 3.49199 7.68064 4.54199 8.34175C5.59199 9.00286 6.74477 9.33342 8.00033 9.33342Z" fill="#857C73"/>
</svg>
